<?xml version="1.0" encoding="UTF-8" standalone="no"?>
<!-- Generator: Adobe Illustrator 16.0.0, SVG Export Plug-In . SVG Version: 6.00 Build 0)  -->

<svg
   xmlns:dc="http://purl.org/dc/elements/1.1/"
   xmlns:cc="http://creativecommons.org/ns#"
   xmlns:rdf="http://www.w3.org/1999/02/22-rdf-syntax-ns#"
   xmlns:svg="http://www.w3.org/2000/svg"
   xmlns="http://www.w3.org/2000/svg"
   xmlns:sodipodi="http://sodipodi.sourceforge.net/DTD/sodipodi-0.dtd"
   xmlns:inkscape="http://www.inkscape.org/namespaces/inkscape"
   version="1.1"
   id="Capa_1"
   x="0px"
   y="0px"
   width="140"
   height="140"
   viewBox="0 0 140 140"
   xml:space="preserve"
   sodipodi:docname="email.svg"
   inkscape:version="0.92.2 (5c3e80d, 2017-08-06)"><metadata
     id="metadata145569"><rdf:RDF><cc:Work
         rdf:about=""><dc:format>image/svg+xml</dc:format><dc:type
           rdf:resource="http://purl.org/dc/dcmitype/StillImage" /><dc:title /></cc:Work></rdf:RDF></metadata><defs
     id="defs145567"><filter
       inkscape:label="Chalk and Sponge"
       inkscape:menu="Distort"
       inkscape:menu-tooltip="Low turbulence gives sponge look and high turbulence chalk"
       width="1.6"
       height="2"
       y="-0.5"
       x="-0.30000001"
       style="color-interpolation-filters:sRGB"
       id="filter145603"><feTurbulence
         baseFrequency="0.4"
         type="fractalNoise"
         seed="0"
         numOctaves="5"
         result="result1"
         id="feTurbulence145599" /><feDisplacementMap
         xChannelSelector="R"
         yChannelSelector="G"
         scale="30"
         in="SourceGraphic"
         in2="result1"
         id="feDisplacementMap145601" /></filter><filter
       inkscape:label="Torn Edges"
       inkscape:menu="Distort"
       inkscape:menu-tooltip="Displace the outside of shapes and pictures without altering their content"
       height="1.4"
       y="-0.2"
       width="1.4"
       x="-0.2"
       style="color-interpolation-filters:sRGB"
       id="filter61"><feTurbulence
         baseFrequency="0.05"
         numOctaves="5"
         type="fractalNoise"
         result="result91"
         id="feTurbulence55" /><feDisplacementMap
         scale="25"
         result="result5"
         xChannelSelector="R"
         in="SourceGraphic"
         in2="result91"
         id="feDisplacementMap57"
         yChannelSelector="A" /><feComposite
         in="SourceGraphic"
         operator="atop"
         in2="result5"
         id="feComposite59" /></filter></defs><sodipodi:namedview
     pagecolor="#ffffff"
     bordercolor="#666666"
     borderopacity="1"
     objecttolerance="10"
     gridtolerance="10"
     guidetolerance="10"
     inkscape:pageopacity="0"
     inkscape:pageshadow="2"
     inkscape:window-width="1538"
     inkscape:window-height="877"
     id="namedview145565"
     showgrid="false"
     inkscape:zoom="1.3757083"
     inkscape:cx="32.519899"
     inkscape:cy="57.567406"
     inkscape:window-x="54"
     inkscape:window-y="-8"
     inkscape:window-maximized="1"
     inkscape:current-layer="Capa_1" /><circle
     style="fill:#ad3511;fill-opacity:1;stroke-width:1.28791785;filter:url(#filter61);opacity:0.8"
     id="path145571"
     cx="70.40593"
     cy="69.381172"
     r="64.377838" /><g
     id="g145532"
     transform="matrix(0.12464627,0,0,0.12464627,-28.384513,20.954165)"><path
       d="m 1037.5761,500.37267 c 0,10.637 -2.992,20.498 -7.785,29.174 l -153.201,-171.41 151.54,-132.584 c 5.895,9.355 9.446,20.344 9.446,32.219 z m -242.605,-111.113 210.863,-184.5 c -8.653,-4.737 -18.397,-7.642 -28.908,-7.642 h -363.91 c -10.524,0 -20.271,2.905 -28.889,7.642 z m 58.787,-11.162 -48.809,42.734 c -2.855,2.487 -6.41,3.729 -9.978,3.729 -3.57,0 -7.125,-1.242 -9.98,-3.729 l -48.82,-42.736 -155.139,173.601 c 9.299,5.834 20.197,9.329 31.983,9.329 h 363.911 c 11.784,0 22.687,-3.495 31.983,-9.329 z m -291.945,-152.546 c -5.894,9.355 -9.448,20.344 -9.448,32.22 v 242.602 c 0,10.637 2.978,20.498 7.789,29.174 l 153.183,-171.44 z"
       id="path145530"
       inkscape:connector-curvature="0"
       style="fill:#000000" /></g><g
     id="g145534"
     transform="translate(0,-345.211)" /><g
     id="g145536"
     transform="translate(0,-345.211)" /><g
     id="g145538"
     transform="translate(0,-345.211)" /><g
     id="g145540"
     transform="translate(0,-345.211)" /><g
     id="g145542"
     transform="translate(0,-345.211)" /><g
     id="g145544"
     transform="translate(0,-345.211)" /><g
     id="g145546"
     transform="translate(0,-345.211)" /><g
     id="g145548"
     transform="translate(0,-345.211)" /><g
     id="g145550"
     transform="translate(0,-345.211)" /><g
     id="g145552"
     transform="translate(0,-345.211)" /><g
     id="g145554"
     transform="translate(0,-345.211)" /><g
     id="g145556"
     transform="translate(0,-345.211)" /><g
     id="g145558"
     transform="translate(0,-345.211)" /><g
     id="g145560"
     transform="translate(0,-345.211)" /><g
     id="g145562"
     transform="translate(0,-345.211)" /></svg>