<?xml version="1.0" encoding="UTF-8" standalone="no"?>
<svg
   xmlns:dc="http://purl.org/dc/elements/1.1/"
   xmlns:cc="http://creativecommons.org/ns#"
   xmlns:rdf="http://www.w3.org/1999/02/22-rdf-syntax-ns#"
   xmlns:svg="http://www.w3.org/2000/svg"
   xmlns="http://www.w3.org/2000/svg"
   xmlns:sodipodi="http://sodipodi.sourceforge.net/DTD/sodipodi-0.dtd"
   xmlns:inkscape="http://www.inkscape.org/namespaces/inkscape"
   aria-labelledby="simpleicons-codewars-icon"
   role="img"
   viewBox="0 0 140 140"
   version="1.1"
   id="svg144967"
   sodipodi:docname="codewars.svg"
   width="140"
   height="140"
   inkscape:version="0.92.2 (5c3e80d, 2017-08-06)">
  <metadata
     id="metadata144973">
    <rdf:RDF>
      <cc:Work
         rdf:about="">
        <dc:format>image/svg+xml</dc:format>
        <dc:type
           rdf:resource="http://purl.org/dc/dcmitype/StillImage" />
        <dc:title>Codewars icon</dc:title>
      </cc:Work>
    </rdf:RDF>
  </metadata>
  <defs
     id="defs144971">
    <filter
       inkscape:label="Chalk and Sponge"
       inkscape:menu="Distort"
       inkscape:menu-tooltip="Low turbulence gives sponge look and high turbulence chalk"
       width="1.6"
       height="2"
       y="-0.5"
       x="-0.30000001"
       style="color-interpolation-filters:sRGB"
       id="filter145609">
      <feTurbulence
         baseFrequency="0.4"
         type="fractalNoise"
         seed="0"
         numOctaves="5"
         result="result1"
         id="feTurbulence145605" />
      <feDisplacementMap
         xChannelSelector="R"
         yChannelSelector="G"
         scale="30"
         in="SourceGraphic"
         in2="result1"
         id="feDisplacementMap145607" />
    </filter>
    <filter
       inkscape:label="Torn Edges"
       inkscape:menu="Distort"
       inkscape:menu-tooltip="Displace the outside of shapes and pictures without altering their content"
       height="1.4"
       y="-0.2"
       width="1.4"
       x="-0.2"
       style="color-interpolation-filters:sRGB"
       id="filter20">
      <feTurbulence
         baseFrequency="0.05"
         numOctaves="5"
         type="fractalNoise"
         result="result91"
         id="feTurbulence14" />
      <feDisplacementMap
         scale="25"
         result="result5"
         xChannelSelector="R"
         in="SourceGraphic"
         in2="result91"
         id="feDisplacementMap16"
         yChannelSelector="A" />
      <feComposite
         in="SourceGraphic"
         operator="atop"
         in2="result5"
         id="feComposite18" />
    </filter>
  </defs>
  <sodipodi:namedview
     pagecolor="#ffffff"
     bordercolor="#666666"
     borderopacity="1"
     objecttolerance="10"
     gridtolerance="10"
     guidetolerance="10"
     inkscape:pageopacity="0"
     inkscape:pageshadow="2"
     inkscape:window-width="767"
     inkscape:window-height="432"
     id="namedview144969"
     showgrid="false"
     inkscape:zoom="1.7383042"
     inkscape:cx="102.60555"
     inkscape:cy="71.471148"
     inkscape:window-x="608"
     inkscape:window-y="64"
     inkscape:window-maximized="0"
     inkscape:current-layer="svg144967"
     inkscape:snap-bbox="true"
     showguides="true"
     inkscape:guide-bbox="true">
    <sodipodi:guide
       position="233.56096,77.661896"
       orientation="0,1"
       id="guide818"
       inkscape:locked="false" />
  </sodipodi:namedview>
  <title
     id="simpleicons-codewars-icon">Codewars icon</title>
  <ellipse
     style="fill:#ad3511;fill-opacity:1;stroke-width:1.61236191;filter:url(#filter20);opacity:0.8"
     id="path145235"
     cx="71.075996"
     cy="69.260704"
     rx="64.329231"
     ry="63.895279" />
  <g
     id="g145210"
     transform="matrix(3.7722007,0,0,3.7722007,24.736242,23.074987)">
    <path
       inkscape:connector-curvature="0"
       style="fill:#000000;stroke-width:0.76128834"
       id="path144965"
       d="m 3.5396639,12.511521 -0.06063,-0.03059 C 3.3426168,12.40446 3.2365146,12.289753 3.1607272,12.144457 3.054625,11.94563 3.0091525,11.762097 3.0091525,11.570917 l 0.015157,-0.09941 c 0,-0.152944 0.037894,-0.290594 0.1061023,-0.420595 l 0.06063,-0.114708 c 0.030315,-0.06117 0.075787,-0.114708 0.113681,-0.168238 0.045472,-0.05354 0.053051,-0.122355 0.037894,-0.183533 l -0.037893,-0.122358 c -0.045472,-0.152944 -0.075788,-0.305887 -0.075788,-0.458831 l -0.022736,-0.09177 c 0,-0.168239 0.045472,-0.336477 0.1515747,-0.458832 l 0.075787,-0.09941 C 3.4866125,9.276752 3.5699787,9.230877 3.6609235,9.200288 3.7367105,9.177348 3.789762,9.100878 3.7973407,9.009109 l 0.015157,-0.2600047 c 0,-0.2064742 0.098523,-0.3976539 0.2500982,-0.5353032 L 4.244486,8.0761525 c 0.037894,-0.038236 0.075787,-0.076472 0.1061023,-0.1376493 0.037894,-0.045883 0.045472,-0.1070607 0.037894,-0.1529438 -0.015157,-0.076472 0,-0.099413 0.037894,-0.1070606 0.1212596,0.045883 0.1970469,0.030589 0.250098,-0.030589 L 4.7749973,7.5179078 5.0478317,7.2120203 C 5.1236197,7.1355483 5.153934,6.9978991 5.1084617,6.8908385 L 5.0175172,6.6920116 c -0.015157,-0.045883 0,-0.099413 0.037894,-0.1147079 0.098524,0 0.1667321,0.038236 0.1970471,0.099413 l 0.030314,0.053531 c 0.045472,0.091766 0.1515747,0.1376494 0.227362,0.099413 0.1667322,-0.061177 0.3031493,-0.076472 0.4319878,-0.076472 h 0.2425195 c 0.1667321,0 0.3031493,-0.1147077 0.3334642,-0.290593 C 6.5484209,6.2484747 6.6242082,6.0802366 6.7303105,5.9655287 6.8439915,5.8355265 6.97283,5.7361132 7.1244047,5.6596412 7.3214518,5.5525807 7.4427115,5.3996369 7.4806051,5.2008101 7.5336563,4.9561 7.6624948,4.7802146 7.8368056,4.6655069 L 8.4127894,4.3366778 8.5795215,4.2372645 C 8.678045,4.1760869 8.7689898,4.099615 8.8447772,4.0078488 L 8.9963519,3.8243163 c 0.075788,-0.076472 0.1515746,-0.1300022 0.2425194,-0.1529438 0.075788,-0.022942 0.1818895,-0.038236 0.2728344,-0.030589 l 0.3031493,0.022942 c 0.1515747,0 0.272834,0.038236 0.394094,0.091766 l 0.07579,0.038236 c 0.07579,0.030589 0.151575,0.015295 0.189469,-0.038236 l 0.06821,-0.038236 0.325885,-0.3441235 c 0.07579,-0.076472 0.166733,-0.1070607 0.265256,-0.091766 0.09852,0.015294 0.197047,0.053531 0.287992,0.099413 0.136417,0.076472 0.250097,0.1070606 0.378937,0.1070606 h 0.07579 c 0.166732,0 0.333464,0.022942 0.500195,0.061177 l 0.113681,0.030589 c 0.113681,0.030589 0.227362,-0.015294 0.30315,-0.1070605 0.02274,-0.038236 0.07579,-0.045883 0.106102,-0.015294 0.02274,0.015294 0.03031,0.030589 0.0379,0.053531 0.01516,0.1529436 0.106103,0.2676515 0.227362,0.3058874 l 0.12126,0.038236 c 0.128838,0.038236 0.242519,0.122355 0.318306,0.2294156 0.07579,0.1147078 0.166732,0.2294156 0.272834,0.3058874 l 0.07579,0.076472 c 0.07579,0.076472 0.181889,0.1070606 0.287992,0.099413 h 0.447145 c 0.18189,0 0.356201,0.030589 0.530512,0.1070605 0.166732,0.076472 0.341043,0.091766 0.500196,0.030589 0.166732,-0.053531 0.341043,-0.076472 0.515354,-0.053531 l 0.325886,0.053531 c 0.151574,0.015294 0.303149,0.091766 0.394094,0.2064741 l 0.0379,0.038236 c 0.07579,0.076472 0.151575,0.1758853 0.227362,0.282946 0.04548,0.099413 0.151575,0.1529437 0.257677,0.1529437 h 0.469882 c 0.113681,0 0.227362,0.022942 0.318307,0.076472 0.09852,0.076472 0.181889,0.1529438 0.257677,0.2294157 l 0.07579,0.099413 c 0.09094,0.1070607 0.136417,0.2523572 0.128839,0.405301 0,0.1223549 0.09094,0.2294155 0.212204,0.2294155 l 0.151574,0.015294 c 0.106103,0 0.197048,0.076472 0.250098,0.1758853 l 0.07579,0.1529438 0.197046,0.4435368 c 0.03031,0.076472 0.0379,0.1529438 0.03031,0.2141212 0,0.076472 0.02274,0.1376494 0.07579,0.1682382 l 0.07579,0.053531 c 0.09852,0.076472 0.151575,0.1911797 0.136417,0.3211819 l -0.05305,0.3594177 -0.01516,0.1529438 c -0.01516,0.076472 0.02274,0.1758854 0.09094,0.2294157 0.113681,0.076472 0.166732,0.1758853 0.174311,0.290593 v 0.152944 c 0,0.07648 -0.01516,0.168237 -0.07579,0.229416 -0.04547,0.06117 -0.07579,0.137649 -0.07579,0.229415 l 0.02274,0.175886 c 0,0.122355 0.07579,0.2294166 0.151574,0.3058876 0.106102,0.07648 0.166732,0.198826 0.181889,0.321182 0.03031,0.191179 0.0379,0.344123 0.0379,0.497068 v 0.175885 c 0,0.06117 0,0.122354 0.02274,0.183532 0.01516,0.05353 0.05305,0.10706 0.09852,0.137649 l 0.151575,0.114708 c 0.151574,0.09941 0.257676,0.229416 0.318306,0.405301 0.07579,0.168239 0.09852,0.344124 0.09852,0.520009 v 0.06118 c 0,0.137649 -0.01516,0.282945 -0.06063,0.412948 -0.0379,0.137649 -0.03031,0.267652 0.02274,0.382359 0.06063,0.107062 0.09853,0.229415 0.113681,0.359417 0.03031,0.152945 0.01516,0.305889 -0.0379,0.428243 l -0.01516,0.05354 c -0.0379,0.09177 -0.09852,0.175885 -0.174311,0.24471 -0.07579,0.07647 -0.151574,0.122355 -0.197047,0.175885 -0.04547,0.04588 -0.07579,0.122354 -0.05306,0.191179 l 0.02274,0.10706 c 0.0379,0.152945 0.0379,0.305889 0,0.443538 v 0.06117 c -0.03031,0.114708 -0.07579,0.214122 -0.12126,0.305888 -0.05305,0.09941 -0.128837,0.175885 -0.227362,0.229415 l -0.113681,0.07647 c -0.05305,0.03059 -0.09094,0.09941 -0.09094,0.168239 0,0.07648 -0.03031,0.152944 -0.07579,0.198827 l -0.11368,0.152943 c -0.07579,0.09941 -0.174311,0.183533 -0.280413,0.229416 -0.106102,0.07647 -0.197047,0.152944 -0.265256,0.229416 -0.07579,0.09177 -0.136417,0.198827 -0.166732,0.305887 -0.03031,0.13765 -0.136417,0.214121 -0.250098,0.214121 H 18.56828 c -0.106102,0 -0.204625,0.07648 -0.250097,0.168239 -0.05305,0.122354 -0.106103,0.206473 -0.174311,0.282945 -0.07579,0.07647 -0.12126,0.168239 -0.151576,0.275299 -0.01516,0.09177 -0.09094,0.152944 -0.166732,0.122355 -0.09852,-0.04588 -0.197046,0 -0.242519,0.07647 -0.09094,0.152944 -0.18189,0.267652 -0.280413,0.367066 l -0.05306,0.04588 c -0.09852,0.07647 -0.227361,0.137649 -0.341042,0.137649 -0.136417,0 -0.204626,0.06118 -0.227362,0.152944 -0.02274,0.07648 -0.0379,0.175885 -0.04547,0.260005 -0.01516,0.09177 -0.04547,0.175885 -0.07579,0.252356 l -0.0379,0.04588 c -0.07579,0.114708 -0.136417,0.229416 -0.212205,0.32883 l -0.03031,0.04588 c -0.09852,0.130003 -0.227362,0.229416 -0.378936,0.267652 -0.18189,0.06117 -0.341044,0.07647 -0.500197,0.07647 h -0.106102 c -0.07579,0 -0.151575,0.04588 -0.204626,0.122355 l -0.04547,0.07647 -0.04547,0.09177 -0.09852,0.168238 c -0.07579,0.137649 -0.189469,0.229416 -0.341043,0.275299 -0.151575,0.03823 -0.325886,0.05353 -0.485039,0.04588 l -0.12126,-0.01529 c -0.106102,0 -0.204626,-0.03059 -0.30315,-0.07648 -0.07579,-0.03059 -0.181889,0 -0.227362,0.07648 -0.07579,0.10706 -0.166732,0.168238 -0.265255,0.198827 l -0.227362,0.07647 c -0.151575,0.03823 -0.318306,0.03823 -0.477461,0 l -0.121259,-0.03823 c -0.07579,0 -0.151575,-0.03824 -0.212205,-0.07648 -0.07579,-0.03823 -0.151574,-0.05353 -0.227362,-0.04588 l -0.09852,0.01529 c -0.151576,0.01529 -0.287992,0 -0.424411,-0.03823 l -0.204611,-0.04586 c -0.09094,-0.03059 -0.174311,-0.09177 -0.227362,-0.175886 -0.0379,-0.07647 -0.12126,-0.13765 -0.227362,-0.152944 h -0.242516 c -0.151575,-0.02296 -0.287992,-0.07649 -0.378937,-0.191199 L 9.7845401,20.388124 9.6784378,20.296358 9.5117057,20.174003 9.4131822,20.097531 C 9.2995012,20.021059 9.1630839,19.959882 9.019088,19.944587 l -0.454724,-0.07647 c -0.045472,0 -0.075787,-0.01529 -0.1212597,-0.02295 l -0.1743109,-0.03823 c -0.075787,-0.01529 -0.1515747,-0.07648 -0.2046258,-0.152944 -0.045472,-0.07648 -0.1288385,-0.107061 -0.2046258,-0.07648 -0.1515746,0.06117 -0.2728344,0.07648 -0.3940941,0.09941 H 7.3593454 C 7.1622983,19.692231 6.9804088,19.661642 6.7985191,19.577523 6.6166296,19.50105 6.4953698,19.386343 6.3816888,19.241046 6.290744,19.111044 6.1543269,19.01163 5.9875947,18.981042 L 5.7753901,18.935159 C 5.6238155,18.90457 5.4722409,18.843392 5.3358236,18.751626 5.184249,18.644566 5.1084617,18.545153 5.0478317,18.422798 4.9872019,18.30809 4.9493082,18.178087 4.9417295,18.040438 v -0.06117 C 4.926572,17.826316 4.8204698,17.688667 4.6764738,17.650431 4.502163,17.5969 4.3733245,17.520429 4.2596435,17.421015 4.1535412,17.321603 4.0929114,17.176306 4.0929114,17.023362 l 0.015157,-0.336476 c 0,-0.130002 -0.037894,-0.244711 -0.1288384,-0.328829 -0.090944,-0.09177 -0.1515746,-0.206475 -0.1515746,-0.328829 l -0.022736,-0.275299 c -0.015157,-0.198827 -0.053051,-0.397654 -0.098523,-0.596481 -0.045472,-0.175886 0.022736,-0.35177 0.1667321,-0.435889 l 0.053051,-0.03824 c 0.075787,-0.05353 0.1061023,-0.152943 0.06063,-0.24471 l -0.06063,-0.07648 c -0.075787,-0.07647 -0.1515749,-0.130003 -0.2273621,-0.152945 -0.06063,-0.01529 -0.075788,-0.07648 -0.075788,-0.114707 l 0.075787,-0.09177 c 0.045472,-0.05353 0.037894,-0.13765 0,-0.183533 -0.06063,-0.06117 -0.090944,-0.13765 -0.098524,-0.214121 L 3.585136,13.069751 c 0,-0.107062 0.015157,-0.214122 0.045472,-0.321182 0.030315,-0.09177 0,-0.198827 -0.090944,-0.24471 z M 11.04261,11.502092 c 0.05306,-0.05354 0.04547,-0.152944 0,-0.191179 -0.07579,-0.06118 -0.128839,-0.130003 -0.174311,-0.206474 l -0.07579,-0.122354 c -0.05305,-0.09941 -0.12126,-0.183533 -0.197046,-0.260006 l -0.01516,-0.01529 c -0.07579,-0.06118 -0.128838,-0.13765 -0.17431,-0.229417 -0.03789,-0.07647 -0.03789,-0.152943 0,-0.229416 l 0.04547,-0.07647 c 0.04547,-0.07648 0.07579,-0.1835332 0.07579,-0.2752992 v -0.03059 c 0,-0.07647 -0.03031,-0.152943 -0.07579,-0.229415 -0.03031,-0.06117 -0.06063,-0.137649 -0.07579,-0.214121 v -0.04588 c -0.02274,-0.09177 0,-0.191179 0.06063,-0.267651 0.06062,-0.09942 0.106099,-0.1911897 0.128835,-0.3058975 V 8.787341 c 0.03031,-0.076472 0.01516,-0.1758853 -0.03031,-0.2523572 -0.04547,-0.076471 -0.06063,-0.1529436 -0.03031,-0.2447099 l 0.05305,-0.1529437 c 0.04547,-0.1376495 0.113681,-0.2600044 0.204626,-0.367065 l 0.106103,-0.1147079 0.07579,-0.091766 0.04547,-0.045883 c 0.04548,-0.045883 0.05306,-0.122355 0.01516,-0.1835326 -0.0379,-0.076472 -0.06063,-0.1529438 -0.04547,-0.2294157 l 0.01516,-0.1070605 c 0.02274,-0.1529438 0.07579,-0.3058875 0.174311,-0.4282426 l 0.03031,-0.030589 C 11.292705,6.3861246 11.4367,6.2867111 11.603433,6.2331808 l 0.204626,-0.076472 c 0.09094,-0.030589 0.151574,-0.1300022 0.151574,-0.2294155 0,-0.1223551 0.0379,-0.2294157 0.106103,-0.328829 l 0.0379,-0.038236 c 0.07579,-0.1300022 0.166733,-0.2600044 0.227362,-0.3976538 l 0.05306,-0.099413 c 0.01516,-0.022942 0.02274,-0.053531 0.02274,-0.076472 0,-0.1300022 -0.07579,-0.2447101 -0.197046,-0.2523573 l -0.333468,-0.022942 c -0.189469,-0.015294 -0.378939,0 -0.560828,0 l -0.644192,0.076472 c -0.09852,0 -0.174311,0.076472 -0.181889,0.1835325 0,0.1070606 -0.07579,0.1988268 -0.166733,0.2294156 l -0.272836,0.076472 -0.075787,0.022942 -0.2273619,0.076472 C 9.5799143,5.4302256 9.443497,5.5525807 9.3677097,5.7208188 l -0.06063,0.099413 C 9.2312925,5.9884703 9.1024541,6.1261198 8.9433007,6.2255331 8.791726,6.3249466 8.7159387,6.4855375 8.7007812,6.66907 v 0.076472 c -0.015158,0.1529441 -0.06063,0.3058878 -0.1515747,0.4129484 l -0.037894,0.061177 c -0.06063,0.076472 -0.075787,0.1758853 -0.037894,0.2600044 0.037894,0.091766 0.06063,0.1911796 0.053051,0.2905931 v 0.4053008 c 0,0.1070607 -0.075787,0.1988269 -0.1515746,0.2294158 -0.106101,0.038236 -0.1743096,0.1223552 -0.2046245,0.2294158 L 8.1323764,8.787341 c -0.030315,0.1529438 0.022736,0.3058868 0.1515746,0.3976538 0.1212597,0.09177 0.197047,0.229416 0.2273621,0.397654 v 0.137649 c 0.022736,0.152944 0.1061022,0.3058882 0.2425194,0.3823592 0.1364172,0.09177 0.2425195,0.229416 0.3031493,0.38236 l 0.037894,0.122354 c 0.06063,0.168239 0.1970471,0.267652 0.3486218,0.282947 h 0.045472 c 0.1364172,0 0.257677,0.07647 0.3334643,0.198827 0.075787,0.122354 0.1970471,0.206473 0.3334641,0.229415 l 0.212205,0.06117 c 0.128838,0.03823 0.250098,0.107061 0.348622,0.206475 l 0.01516,0.01529 c 0.07579,0.06117 0.197047,0.05354 0.265256,-0.03059 l 0.05305,-0.06118 z m 0.863975,-0.70354 c 0.07579,0.04588 0.151575,0.02295 0.181891,-0.04588 l 0.02273,-0.03824 c 0.05305,-0.107061 0.12126,-0.214122 0.197046,-0.305888 l 0.15158,-0.229412 c 0.02274,0 0.03031,-0.01529 0.0379,-0.03059 l 0.18189,-0.2447092 c 0.07579,-0.07647 0.166732,-0.130003 0.272834,-0.130003 0.09852,0 0.181889,-0.05353 0.227362,-0.152944 0.03031,-0.10706 0.07579,-0.206474 0.166732,-0.290593 l 0.0379,-0.04588 c 0.07579,-0.07648 0.151574,-0.114708 0.227361,-0.152944 0.09852,-0.01529 0.189469,-0.03059 0.280413,-0.03059 h 0.227362 c 0.09094,0 0.166733,-0.03824 0.212206,-0.114708 0.04547,-0.076471 0.113681,-0.1300019 0.189468,-0.1682377 l 0.07579,-0.030589 c 0.12126,-0.053531 0.257678,-0.091766 0.394094,-0.1070606 l 0.151576,-0.015294 c 0.09094,0 0.189468,0 0.280412,0.053531 0.07579,0.053531 0.174311,0.045883 0.250099,-0.015294 l 0.05305,-0.030589 c 0.11367,-0.076472 0.242508,-0.1376496 0.378925,-0.152944 h 0.01516 c 0.151575,-0.030589 0.287992,-0.030589 0.439567,-0.022942 h 0.07579 c 0.151576,0.022942 0.280414,0.076472 0.378938,0.1911797 l 0.02274,0.030589 c 0.07579,0.076472 0.197046,0.1376493 0.303149,0.1376493 h 0.128838 c 0.0379,0 0.07579,-0.015294 0.09852,-0.053531 0.02274,-0.022942 0.06063,-0.045883 0.09852,-0.045883 h 0.07579 c 0.106103,0 0.204626,0.030589 0.30315,0.061177 l 0.128838,0.053531 c 0.12126,0.038236 0.250099,0.076472 0.378937,0.091766 h 0.09094 c 0.06062,0 0.09852,-0.038236 0.09852,-0.091766 0,-0.076472 -0.01516,-0.1529437 -0.05306,-0.2141212 L 18.636497,8.5349838 C 18.575863,8.4355703 18.530395,8.3285097 18.484922,8.2290963 l -0.01516,-0.038236 c -0.0379,-0.076472 -0.0379,-0.1529436 0,-0.2294155 v -0.038236 c 0.01516,-0.061177 -0.01516,-0.1300022 -0.07579,-0.1529438 h -0.06063 C 18.21209,7.73203 18.105988,7.663205 18.0302,7.5637915 L 17.95441,7.4873195 C 17.878628,7.4108471 17.833155,7.2961393 17.80284,7.1814316 17.764947,7.0820181 17.68158,7.0055463 17.575479,7.0055463 H 17.257171 C 17.14349,6.9902519 17.044967,6.9290743 16.976758,6.8373081 l -0.03031,-0.038236 C 16.893398,6.7226001 16.847918,6.6308343 16.817608,6.539068 16.779718,6.462597 16.696347,6.416713 16.620559,6.439655 l -0.09094,0.030589 c -0.151575,0.053531 -0.303151,0.076472 -0.454724,0.061177 l -0.12126,-0.015294 c -0.128839,0 -0.250099,-0.053531 -0.348622,-0.1300022 l -0.07579,-0.053531 c -0.06063,-0.045883 -0.12126,-0.076472 -0.189469,-0.1070606 -0.07579,-0.030589 -0.136417,-0.015294 -0.181889,0.038236 l -0.03789,0.045883 c -0.07579,0.076472 -0.181891,0.1376494 -0.287992,0.1529438 l -0.409252,0.022942 c -0.07579,0 -0.151574,0.038236 -0.204625,0.091766 -0.06063,0.053531 -0.128839,0.091766 -0.204626,0.1070607 h -0.01516 c -0.07579,0 -0.151573,0.053531 -0.227362,0.1070606 v 0.015294 c -0.07579,0.076471 -0.174312,0.1147075 -0.272834,0.1147075 l -0.03031,0.015294 c -0.09094,0 -0.18189,0 -0.272835,0.022942 h -0.09094 C 12.9752,6.9826048 12.876677,7.089665 12.846361,7.2273143 l -0.03031,0.1758853 c -0.02274,0.122355 -0.07579,0.2294157 -0.151575,0.3288291 -0.07579,0.091766 -0.166732,0.1529438 -0.280413,0.1529438 h -0.11368 -0.01516 c -0.07579,0.015294 -0.151574,0.099413 -0.136417,0.1911796 0.01516,0.1300022 0,0.24471 -0.02274,0.3594178 l -0.03031,0.1300022 c -0.03031,0.1147078 -0.106102,0.2064742 -0.204626,0.24471 l -0.04547,0.022942 H 11.8005 c -0.04547,0.030589 -0.07579,0.099413 -0.0379,0.1529437 0.04547,0.07647 0.06063,0.152944 0.05305,0.229415 l -0.02274,0.244711 c 0,0.09177 -0.0379,0.175885 -0.07579,0.252357 -0.04547,0.07647 -0.04547,0.152943 -0.01516,0.229416 l 0.07579,0.1682382 c 0.0379,0.07647 0.04547,0.152943 0.02274,0.244711 -0.02274,0.07647 -0.0379,0.152942 -0.03031,0.229415 0,0.07648 0.04547,0.152943 0.106102,0.183533 l 0.01516,0.01529 z m 5.9872,5.528915 c 0.07579,0.07648 0.189468,0.107061 0.280413,0.04588 l 0.151575,-0.09941 c 0.07579,-0.05353 0.136417,-0.130003 0.166732,-0.229416 v -0.01529 l 0.07579,-0.229416 0.04548,-0.07648 0.03031,-0.07647 0.03031,-0.05353 c 0.03031,-0.06117 0.07579,-0.107061 0.151574,-0.130002 l 0.03031,-0.01529 c 0.06063,-0.01529 0.09852,-0.07648 0.09852,-0.13765 0,-0.07648 0.0379,-0.137649 0.07579,-0.191179 l 0.06063,-0.05354 0.151575,-0.198827 v -0.01529 c 0.04547,-0.06117 0.07579,-0.130002 0.09094,-0.206474 0.01516,-0.07648 0,-0.152944 -0.03031,-0.229415 l -0.01516,-0.03059 c -0.03031,-0.07648 -0.04547,-0.130003 -0.05306,-0.198827 l -0.02274,-0.214122 -0.02273,-0.229416 c 0,-0.07648 0.03031,-0.152943 0.07579,-0.229414 0.05305,-0.06118 0.09094,-0.13765 0.12126,-0.214122 v -0.03059 l 0.01516,-0.01529 c 0.01516,-0.07647 -0.02274,-0.152943 -0.09094,-0.152943 -0.07579,-0.03823 -0.151574,-0.09941 -0.174311,-0.191181 l -0.02274,-0.04588 c -0.0379,-0.137649 -0.06063,-0.275298 -0.06063,-0.412948 l 0.01516,-0.382359 v -0.02293 c 0,-0.130003 -0.106103,-0.229416 -0.227362,-0.229416 h -0.01516 c -0.151574,0 -0.272834,-0.04588 -0.378937,-0.152944 l -0.06063,-0.07648 -0.151575,-0.175885 -0.197047,-0.229415 c -0.07579,-0.107061 -0.151575,-0.198827 -0.250098,-0.290593 -0.07579,-0.07648 -0.189469,-0.152945 -0.30315,-0.168239 l -0.151574,-0.02295 c -0.07579,-0.01529 -0.17431,-0.05353 -0.257678,-0.107062 -0.06063,-0.04588 -0.151573,-0.03059 -0.212204,0.03059 l -0.09852,0.107061 -0.04547,0.03059 c -0.05306,0.01529 -0.106102,-0.01529 -0.128839,-0.07647 -0.03031,-0.09177 -0.03031,-0.198827 0.01516,-0.290594 v -0.04588 c 0,-0.05354 -0.04547,-0.09177 -0.09094,-0.07647 H 16.3932 c -0.136417,0 -0.272834,-0.01529 -0.401673,-0.07648 l -0.07579,-0.03059 c -0.07579,-0.03824 -0.166732,-0.06117 -0.250098,-0.06117 -0.07579,0 -0.151575,0.01529 -0.227362,0.06117 l -0.03031,0.02295 c -0.09094,0.06117 -0.197046,0.09177 -0.303149,0.09941 H 14.85472 c -0.113681,0 -0.227362,0.03824 -0.303149,0.09941 -0.09852,0.06117 -0.204626,0.09941 -0.318307,0.122354 l -0.204626,0.03059 c -0.09094,0.02294 -0.189468,0.06117 -0.272834,0.130002 -0.07579,0.07647 -0.18189,0.122354 -0.280413,0.152943 l -0.03789,0.01529 c -0.12126,0.03823 -0.227362,0.114707 -0.30315,0.229415 l -0.09094,0.09177 c -0.05306,0.07647 -0.05306,0.168239 0,0.24471 0.04547,0.07647 0.136417,0.09941 0.227362,0.07647 l 0.113681,-0.04588 c 0.06063,-0.02295 0.128838,0 0.181889,0.03059 0.04547,0.03823 0.113681,0.06118 0.18189,0.05353 l 0.189467,-0.02295 c 0.106104,0 0.212206,0 0.318308,0.03059 0.113681,0.03823 0.212204,0.07647 0.30315,0.152943 0.09094,0.07648 0.189467,0.107062 0.303148,0.122356 0.113681,0.01529 0.227362,0.03824 0.333465,0.07647 l 0.07579,0.01529 c 0.07579,0.02295 0.136417,0.07648 0.181889,0.152944 0.0379,0.06117 0.07579,0.152944 0.07579,0.229416 v 0.02295 c 0,0.09177 0.07579,0.152943 0.151574,0.152943 h 0.04547 c 0.121259,0 0.250097,0.01529 0.378936,0.05354 l 0.05305,0.02294 c 0.07579,0.03059 0.151574,0.07647 0.204625,0.152943 0.06063,0.07648 0.09853,0.152944 0.12126,0.229416 l 0.02274,0.107061 c 0.02274,0.114708 0.03031,0.229416 0.03031,0.35177 v 0.03824 c 0,0.07648 0.05306,0.152944 0.136418,0.183533 0.07579,0.01529 0.166732,0.04588 0.250098,0.09177 l 0.0379,0.01529 c 0.09852,0.06118 0.197049,0.137649 0.272835,0.229415 l 0.0379,0.05353 c 0.09852,0.114708 0.151575,0.260004 0.151575,0.405302 v 0.05354 c 0,0.114708 -0.02274,0.229416 -0.06063,0.336477 -0.03031,0.09177 0,0.198826 0.09852,0.229415 l 0.05306,0.03824 c 0.113681,0.04588 0.212204,0.130003 0.287992,0.229416 0.07579,0.114708 0.106101,0.24471 0.106101,0.382359 v 0.229416 c -0.01516,0.07648 -0.03789,0.137649 -0.07579,0.191179 -0.0379,0.05353 -0.0379,0.130003 0,0.183533 l 0.04547,0.07647 z m -4.850389,-3.915359 h -0.01516 c -0.03031,0 -0.04547,0.03824 -0.0379,0.07647 l 0.03031,0.152943 c 0.03031,0.122355 0.04547,0.24471 0.06063,0.367065 0.01516,0.122355 0.07579,0.229415 0.166733,0.305888 h 0.03031 c 0.113681,0.09177 0.18189,0.229416 0.189468,0.367065 v 0.382358 c -0.01516,0.07647 0,0.152945 0.04547,0.214122 l 0.0379,0.03824 c 0.07579,0.09177 0.106101,0.198827 0.113681,0.305887 l 0.02274,0.420595 c 0,0.09941 -0.06063,0.183532 -0.151575,0.198827 l -0.07579,0.01529 c -0.05306,0 -0.07579,0.06117 -0.07579,0.114708 0,0.06117 0.02273,0.130002 0.04547,0.191179 v 0.01529 c 0.02274,0.07648 0.03031,0.152944 0.02274,0.229415 l -0.03031,0.206475 c -0.03031,0.152943 -0.07579,0.290593 -0.151573,0.428242 l -0.05306,0.09177 c -0.0379,0.07647 -0.09094,0.122354 -0.151575,0.152944 -0.07579,0.03059 -0.128839,0.09177 -0.151575,0.168237 l -0.06063,0.2753 c -0.0379,0.152943 -0.106102,0.305887 -0.197048,0.458832 h -0.01516 c -0.09094,0.122354 -0.204625,0.229414 -0.341043,0.305886 l -0.09094,0.06117 -0.227362,0.114706 c -0.07579,0.03059 -0.12126,0.09941 -0.136417,0.183533 l -0.0379,0.252358 c -0.02274,0.152944 -0.07579,0.282946 -0.18189,0.38236 l -0.09852,0.114708 -0.113681,0.114708 -0.113681,0.122353 c -0.09094,0.107061 -0.227362,0.152944 -0.378936,0.130002 l -0.272837,-0.05354 -0.250098,-0.03059 h -0.06821 c -0.03031,0.03059 -0.03789,0.07648 -0.01516,0.122355 0.05305,0.09177 0.136417,0.152944 0.227362,0.152944 l 0.166732,0.03059 c 0.07579,0 0.166732,0.03824 0.24252,0.07647 0.07579,0.05353 0.151574,0.09177 0.242518,0.114708 h 0.01516 c 0.09852,0.03823 0.204626,0.04588 0.303151,0.03823 l 0.113681,-0.01529 c 0.128838,-0.01529 0.250098,0 0.3562,0.04588 l 0.09094,0.03059 c 0.03789,0.01529 0.09852,0 0.136417,-0.03824 0.04547,-0.04588 0.09094,-0.07648 0.151574,-0.09941 l 0.06063,-0.01529 c 0.09852,-0.03059 0.197048,-0.04588 0.30315,-0.04588 h 0.06063 c 0.09094,0 0.174311,0.01529 0.250099,0.06118 l 0.03031,0.01529 c 0.05306,0.02294 0.113681,0 0.151576,-0.04588 0.02274,-0.05353 0.07579,-0.10706 0.128838,-0.152943 l 0.189467,-0.130002 0.12126,-0.07648 0.06063,-0.03823 c 0.07579,-0.05353 0.181891,-0.07648 0.272834,-0.07648 l 0.272835,-0.02295 c 0.106103,-0.01529 0.197047,-0.09177 0.227362,-0.198827 0.03031,-0.114708 0.07579,-0.229416 0.151575,-0.328829 0.07579,-0.09941 0.151574,-0.183532 0.227362,-0.260004 0.09852,-0.07648 0.197047,-0.114708 0.303149,-0.122355 h 0.06063 c 0.12126,-0.02294 0.212206,-0.13765 0.204627,-0.260005 v -0.01529 -0.497068 c 0.01516,-0.07647 0.04547,-0.175885 0.09094,-0.252357 l 0.151575,-0.229415 0.06063,-0.07647 c 0.04547,-0.03823 0.07579,-0.09177 0.128839,-0.152944 l 0.07579,-0.09941 c 0.04547,-0.07647 0.04547,-0.175885 -0.01516,-0.24471 -0.07579,-0.07647 -0.113681,-0.183533 -0.128839,-0.290593 v -0.03059 c -0.01516,-0.122355 -0.01516,-0.252358 0.02274,-0.38236 v -0.03823 c 0.0379,-0.09941 0.09094,-0.198827 0.151575,-0.290593 0.06063,-0.07648 0.05306,-0.183533 -0.02274,-0.24471 l -0.128849,-0.114693 c -0.106103,-0.09177 -0.166732,-0.229416 -0.18189,-0.367065 l -0.01516,-0.152944 c 0,-0.04588 0,-0.09941 -0.01516,-0.152943 l -0.01516,-0.114708 c -0.01516,-0.130002 -0.09094,-0.229416 -0.197046,-0.305888 l -0.05306,-0.01529 c -0.07579,-0.04588 -0.151575,-0.114708 -0.212205,-0.206474 -0.06062,-0.07648 -0.09094,-0.183532 -0.113681,-0.290593 l -0.02274,-0.130002 c 0,-0.04588 -0.03031,-0.07647 -0.07579,-0.09941 l -0.12126,-0.03824 -0.242519,-0.07648 c -0.07579,-0.01529 -0.151575,-0.07647 -0.204626,-0.130002 h -0.01516 c -0.04547,-0.06117 -0.121259,-0.06117 -0.166732,-0.01529 l -0.07579,0.07648 c -0.01516,0.02295 -0.03031,0.03059 -0.05306,0.02295 -0.04548,0 -0.07579,-0.03824 -0.06063,-0.07647 0.01516,-0.122356 -0.03031,-0.24471 -0.128839,-0.321183 l -0.09852,-0.07647 -0.227362,-0.152944 c -0.06063,-0.02295 -0.151575,0 -0.18189,0.07648 l -0.03031,0.04588 c 0,0.01529 -0.02274,0.02295 -0.03031,0.03059 -0.03031,0 -0.07579,0 -0.07579,-0.03823 l -0.02274,-0.03824 c -0.02274,-0.04588 -0.07579,-0.07648 -0.121261,-0.09177 z m -0.909448,0.764719 -0.03789,-0.03824 c -0.0379,-0.03059 -0.07579,-0.02295 -0.113681,0.01529 -0.05305,0.09177 -0.09852,0.191181 -0.12126,0.290594 v 0.01529 c -0.02274,0.09941 -0.113681,0.168238 -0.204626,0.152944 h -0.07579 -0.01516 c -0.106103,0 -0.18947,0.09177 -0.18947,0.198826 0,0.137649 -0.04547,0.275299 -0.128838,0.382359 l -0.04547,0.04588 c -0.07579,0.09941 -0.189468,0.168239 -0.303149,0.206475 l -0.06063,0.01529 c -0.07579,0.02295 -0.136416,0.07647 -0.151574,0.168239 0,0.07647 -0.04547,0.152943 -0.106103,0.214121 l -0.07579,0.06117 c -0.09094,0.09941 -0.227362,0.152944 -0.363779,0.168238 l -0.3789367,0.03824 c -0.1212598,0 -0.2273621,0.07648 -0.3031494,0.19118 -0.075787,0.114707 -0.1894683,0.191179 -0.3031493,0.206473 l -0.1667321,0.01529 c -0.1212597,0.01529 -0.2500982,0.01529 -0.3789367,-0.01529 l -0.075787,-0.01528 -0.2046259,-0.05353 c -0.075787,-0.02295 -0.1364172,0 -0.1818896,0.05353 l -0.075787,0.09941 c -0.098524,0.114707 -0.2425197,0.168237 -0.3789369,0.152943 l -0.4926177,-0.06117 c -0.075787,0 -0.1364172,-0.03824 -0.2046258,-0.07648 -0.075783,-0.04588 -0.1288347,-0.09941 -0.1818858,-0.152945 L 6.6242082,15.226272 c -0.022736,-0.01529 -0.06063,-0.02295 -0.098523,-0.01529 l -0.1061022,0.04588 -0.4244091,0.10706 c -0.075787,0.02295 -0.1743108,0 -0.2500982,-0.04588 -0.075787,-0.06117 -0.1667322,-0.07648 -0.2576769,-0.07648 h -0.098523 c -0.090944,0.02295 -0.1515747,0.122355 -0.1212598,0.214121 l 0.030314,0.152944 c 0.022736,0.07648 0.015157,0.168239 -0.022736,0.24471 -0.037894,0.07648 -0.030314,0.152945 0.022736,0.229416 l 0.045472,0.06118 c 0.06063,0.09177 0.1515746,0.168238 0.2273619,0.24471 0.075787,0.07647 0.1515747,0.152943 0.2122046,0.252357 l 0.113681,0.206475 c 0.06063,0.10706 0.1515747,0.168238 0.2728343,0.168238 0.1136811,0 0.227362,0.03823 0.3183069,0.114708 l 0.2273619,0.214121 c 0.06063,0.05353 0.1515747,0.06117 0.2122045,0.01529 l 0.037894,-0.01529 c 0.045472,0 0.075787,0.03059 0.075787,0.07647 v 0.03823 c 0,0.09941 0.075787,0.191178 0.1743109,0.229415 l 0.341043,0.07647 c 0.1212597,0.03823 0.2425195,0.07647 0.3562004,0.152943 h 0.06063 c 0.06063,0 0.1136811,-0.05353 0.1061024,-0.122356 v -0.267651 c 0,-0.07647 0.030314,-0.152943 0.090944,-0.183532 l 0.037894,-0.01529 c 0.037894,0.01529 0.075787,0.04588 0.06063,0.07647 v 0.130002 c 0,0.09941 0.030314,0.19118 0.098524,0.260005 0.075787,0.07648 0.1743108,0.09177 0.2576769,0.06117 0.090944,-0.03824 0.1818896,-0.04588 0.2804132,-0.03824 l 0.280413,0.01529 c 0.1364172,0.01529 0.2652556,0 0.3789367,-0.05353 0.1364172,-0.04588 0.2500982,-0.10706 0.3562005,-0.19118 l 0.045472,-0.03059 0.2273619,-0.206475 c 0.07579,-0.07647 0.174311,-0.114708 0.265256,-0.114708 h 0.303149 c 0.151575,-0.01527 0.287992,-0.152927 0.30315,-0.305871 l 0.03031,-0.152944 c 0,-0.09941 0.04547,-0.191179 0.113681,-0.267652 0.07579,-0.07647 0.151574,-0.122354 0.227361,-0.152943 l 0.09094,-0.03824 c 0.128839,-0.05353 0.227362,-0.168237 0.272835,-0.305886 l 0.04548,-0.183533 c 0.0379,-0.152944 0.113681,-0.305888 0.227362,-0.405302 l 0.01516,-0.01529 c 0.09094,-0.07647 0.106102,-0.229416 0.04547,-0.336476 l -0.02273,-0.05353 c -0.05306,-0.07647 -0.06063,-0.191179 -0.02274,-0.290592 0.03789,-0.107061 0.07579,-0.198827 0.136416,-0.290594 l 0.07579,-0.10706 c 0.03031,-0.06117 0.03031,-0.152945 -0.01516,-0.206475 -0.04547,-0.06117 -0.07579,-0.137649 -0.07579,-0.214122 l -0.01516,-0.10706 v -0.260003 c 0.01516,-0.07648 0,-0.175886 -0.02274,-0.252358 l -0.0303,-0.09176 z M 11.050189,12.59564 V 12.5727 c 0,-0.07648 -0.04547,-0.122356 -0.106103,-0.122356 H 10.74704 c -0.07579,0.01529 -0.151575,0.01529 -0.212205,0 h -0.341043 c -0.174311,0 -0.3410433,-0.03059 -0.5077755,-0.07647 L 9.504127,12.32799 9.3525523,12.282106 9.0115092,12.167398 C 8.8296197,12.113868 8.6932025,11.991513 8.6098364,11.823274 l -0.037894,-0.07648 c -0.053051,-0.114703 -0.1667315,-0.175881 -0.2804125,-0.15294 -0.1288384,0 -0.2576769,0 -0.3789367,-0.06117 l -0.090944,-0.03824 C 7.6473373,11.417975 7.5184988,11.265029 7.5184988,11.058556 L 7.4881838,10.852081 C 7.4654477,10.745021 7.3972391,10.645608 7.3062942,10.607371 7.2001921,10.561488 7.1016685,10.500311 7.003145,10.431486 L 6.965251,10.408536 C 6.8515706,10.316776 6.753047,10.194422 6.6999959,10.049126 l -0.015157,-0.04588 C 6.6469449,9.8808928 6.6393669,9.7508888 6.6696809,9.6208868 l 0.015158,-0.04588 c 0.030315,-0.09941 0.037894,-0.198827 0.037894,-0.305887 0,-0.09177 -0.037894,-0.183533 -0.1061023,-0.252358 L 6.5105273,8.9173431 C 6.3892676,8.8179297 6.3134802,8.6726331 6.3059015,8.5120423 6.290744,8.3438041 6.290744,8.1832132 6.3210589,8.0226222 v -0.022942 -0.022942 c 0,-0.091766 -0.075787,-0.1529437 -0.1515747,-0.1529437 h -0.022736 c -0.098523,0 -0.1818895,0.061177 -0.2273619,0.1529437 C 5.8814923,8.0837996 5.8208623,8.1679186 5.752654,8.2520378 L 5.72234,8.2902738 5.5707653,8.4432176 5.4949783,8.5196896 C 5.4191907,8.5961611 5.3737184,8.7108692 5.3585608,8.825577 5.3434031,8.9402848 5.3130886,9.0549928 5.2676164,9.1620528 l -0.015157,0.03824 c -0.037896,0.09177 -0.098525,0.175885 -0.1743125,0.229416 -0.075787,0.06117 -0.1288385,0.152944 -0.1288385,0.24471 l -0.015157,0.3517702 c 0,0.152943 -0.022736,0.305888 -0.075787,0.458832 l -0.015157,0.06117 c -0.037894,0.09941 0,0.206474 0.090944,0.252358 l 0.3183069,0.137649 0.030315,0.01529 c 0.022736,0 0.030314,0.01529 0.037894,0.03824 0.022736,0.03059 0,0.07647 -0.022736,0.07647 l -0.075787,0.03824 c -0.045472,0.01529 -0.075787,0.06117 -0.090944,0.114708 l -0.015157,0.07647 v 0.01529 l -0.075787,0.428242 c -0.015157,0.06117 -0.015157,0.130002 -0.015157,0.198826 0,0.06118 0.037894,0.114708 0.090944,0.13765 l 0.1667321,0.07647 c 0.075787,0.04588 0.1667322,0.09941 0.2273619,0.152944 l 0.075787,0.06117 c 0.022736,0.03059 0.06063,0.06118 0.090944,0.07648 l 0.030315,0.03059 c 0.053051,0.04588 0.090944,0.10706 0.1061022,0.175885 l 0.075787,0.344123 c 0,0.09177 0.075787,0.168239 0.1515746,0.191181 l 0.1212597,0.03824 c 0,0 0.022736,0 0.037894,0.01529 l 0.1515747,0.04588 c 0.1212597,0.03824 0.227362,0.10706 0.3183068,0.198826 0.090944,0.07648 0.1818896,0.175885 0.2576769,0.282946 l 0.030315,0.03059 c 0.06063,0.07648 0.1515746,0.114708 0.2425195,0.09177 0.090944,-0.02295 0.1894683,-0.03059 0.2879919,-0.03059 h 0.113681 c 0.075787,0 0.1743108,0.02295 0.2576769,0.07648 0.075787,0.04588 0.1743109,0.07647 0.2652556,0.114708 h 0.022736 c 0.090944,0.03823 0.1894684,0.02294 0.2652557,-0.03059 0.075787,-0.06117 0.1743108,-0.09177 0.2728343,-0.09177 l 0.3562005,0.02295 c 0.075787,0 0.1515747,-0.01529 0.1894683,-0.07647 h 0.015158 l 0.1288384,-0.122356 0.037894,-0.03824 c 0.06063,-0.07648 0.1515747,-0.107061 0.2425194,-0.114709 h 0.341043 c 0.090944,0 0.1743113,-0.07648 0.2122043,-0.152943 0.03789,-0.07648 0.113681,-0.13765 0.204626,-0.152944 l 0.151574,-0.03059 c 0.06063,0 0.113681,-0.05354 0.136419,-0.122355 0.02274,-0.07647 0.06063,-0.137649 0.113681,-0.183532 l 0.12126,-0.122347 c 0.07579,-0.07647 0.113681,-0.152943 0.128839,-0.244709 z" />
  </g>
</svg>
