<?xml version="1.0" encoding="UTF-8" standalone="no"?>
<!-- Generator: Adobe Illustrator 17.1.0, SVG Export Plug-In . SVG Version: 6.00 Build 0)  -->

<svg
   xmlns:dc="http://purl.org/dc/elements/1.1/"
   xmlns:cc="http://creativecommons.org/ns#"
   xmlns:rdf="http://www.w3.org/1999/02/22-rdf-syntax-ns#"
   xmlns:svg="http://www.w3.org/2000/svg"
   xmlns="http://www.w3.org/2000/svg"
   xmlns:sodipodi="http://sodipodi.sourceforge.net/DTD/sodipodi-0.dtd"
   xmlns:inkscape="http://www.inkscape.org/namespaces/inkscape"
   inkscape:version="0.92.2 (5c3e80d, 2017-08-06)"
   sodipodi:docname="github.svg"
   xml:space="preserve"
   enable-background="new 0 0 128 128"
   viewBox="0 0 140 140"
   y="0px"
   x="0px"
   id="Github"
   version="1.1"
   width="140"
   height="140"><metadata
     id="metadata4027"><rdf:RDF><cc:Work
         rdf:about=""><dc:format>image/svg+xml</dc:format><dc:type
           rdf:resource="http://purl.org/dc/dcmitype/StillImage" /><dc:title /></cc:Work></rdf:RDF></metadata><defs
     id="defs4025"><filter
       inkscape:label="Chalk and Sponge"
       inkscape:menu="Distort"
       inkscape:menu-tooltip="Low turbulence gives sponge look and high turbulence chalk"
       width="1.6"
       height="2"
       y="-0.5"
       x="-0.30000001"
       style="color-interpolation-filters:sRGB"
       id="filter145487"><feTurbulence
         baseFrequency="0.4"
         type="fractalNoise"
         seed="0"
         numOctaves="5"
         result="result1"
         id="feTurbulence145483" /><feDisplacementMap
         xChannelSelector="R"
         yChannelSelector="G"
         scale="30"
         in="SourceGraphic"
         in2="result1"
         id="feDisplacementMap145485" /></filter><filter
       inkscape:label="Lapping"
       inkscape:menu="Distort"
       inkscape:menu-tooltip="Something like a water noise"
       height="1.3"
       y="-0.15000001"
       width="1.3"
       x="-0.15000001"
       style="color-interpolation-filters:sRGB"
       id="filter34"><feTurbulence
         numOctaves="5"
         seed="0"
         type="fractalNoise"
         baseFrequency="0.1"
         result="result1"
         id="feTurbulence28" /><feGaussianBlur
         stdDeviation="2"
         result="result2"
         id="feGaussianBlur30" /><feDisplacementMap
         scale="50"
         yChannelSelector="B"
         xChannelSelector="R"
         in="SourceGraphic"
         in2="result2"
         id="feDisplacementMap32" /></filter><filter
       inkscape:label="Torn Edges"
       inkscape:menu="Distort"
       inkscape:menu-tooltip="Displace the outside of shapes and pictures without altering their content"
       height="1.4"
       y="-0.2"
       width="1.4"
       x="-0.2"
       style="color-interpolation-filters:sRGB"
       id="filter30"><feTurbulence
         baseFrequency="0.05"
         numOctaves="5"
         type="fractalNoise"
         result="result91"
         id="feTurbulence24" /><feDisplacementMap
         scale="25"
         result="result5"
         xChannelSelector="R"
         in="SourceGraphic"
         in2="result91"
         id="feDisplacementMap26"
         yChannelSelector="A" /><feComposite
         in="SourceGraphic"
         operator="atop"
         in2="result5"
         id="feComposite28" /></filter><filter
       inkscape:label="Torn Edges"
       inkscape:menu="Distort"
       inkscape:menu-tooltip="Displace the outside of shapes and pictures without altering their content"
       height="1.4"
       y="-0.2"
       width="1.4"
       x="-0.2"
       style="color-interpolation-filters:sRGB;"
       id="filter35"><feTurbulence
         baseFrequency="0.05"
         numOctaves="5"
         type="fractalNoise"
         result="result91"
         id="feTurbulence29" /><feDisplacementMap
         scale="25"
         result="result5"
         xChannelSelector="R"
         in="SourceGraphic"
         in2="result91"
         id="feDisplacementMap31" /><feComposite
         in="SourceGraphic"
         operator="atop"
         in2="result5"
         id="feComposite33" /></filter></defs><sodipodi:namedview
     inkscape:current-layer="Github"
     inkscape:window-maximized="0"
     inkscape:window-y="0"
     inkscape:window-x="824"
     inkscape:cy="64"
     inkscape:cx="82.983051"
     inkscape:zoom="1.84375"
     showgrid="false"
     id="namedview4023"
     inkscape:window-height="868"
     inkscape:window-width="767"
     inkscape:pageshadow="2"
     inkscape:pageopacity="0"
     guidetolerance="10"
     gridtolerance="10"
     objecttolerance="10"
     borderopacity="1"
     bordercolor="#666666"
     pagecolor="#ffffff" /><g
     id="g4020"
     transform="translate(6.5084742,4.4067796)"><circle
       id="github-back"
       cx="64"
       cy="64"
       r="64"
       style="fill:#ad3511;fill-opacity:1;filter:url(#filter35);opacity:0.8" /><g
       id="github-github"><path
         d="m 64,29.0449 c -19.791,0 -35.8398,16.0449 -35.8398,35.8399 0,15.8349 10.2695,29.2695 24.5097,34.0088 1.791,0.331 2.4492,-0.7784 2.4492,-1.7247 0,-0.8544 -0.0332,-3.6777 -0.0488,-6.6728 -9.9707,2.168 -12.0752,-4.2285 -12.0752,-4.2285 -1.6299,-4.1426 -3.9795,-5.2451 -3.9795,-5.2451 -3.2519,-2.2237 0.2456,-2.1778 0.2456,-2.1778 3.5982,0.253 5.4937,3.6953 5.4937,3.6953 3.1963,5.4776 8.3847,3.8936 10.4297,2.9776 0.3222,-2.3164 1.2509,-3.8975 2.2754,-4.793 -7.96,-0.9053 -16.3291,-3.9785 -16.3291,-17.7119 0,-3.9126 1.4004,-7.1104 3.6933,-9.6196 -0.3721,-0.9034 -1.5996,-4.5484 0.3477,-9.4854 0,0 3.0088,-0.9624 9.8574,3.6743 2.8594,-0.7939 5.9258,-1.1924 8.9707,-1.206 3.0459,0.0136 6.1143,0.4121 8.9785,1.206 6.8408,-4.6367 9.8467,-3.6743 9.8467,-3.6743 1.9502,4.937 0.7236,8.582 0.3516,9.4854 2.2978,2.5092 3.6884,5.707 3.6884,9.6196 0,13.7666 -8.3847,16.7959 -16.3652,17.6846 1.2852,1.1113 2.4297,3.2929 2.4297,6.6367 0,4.7949 -0.0401,8.6543 -0.0401,9.8349 0,0.9541 0.6456,2.0713 2.4629,1.7198 C 89.584,94.1445 99.8408,80.7148 99.8408,64.8848 99.8408,45.0898 83.7939,29.0449 64,29.0449 Z"
         id="path4003"
         style="clip-rule:evenodd;fill:#000000;fill-rule:evenodd"
         inkscape:connector-curvature="0" /><path
         d="m 41.7354,80.5029 c -0.0791,0.1787 -0.3594,0.2315 -0.6153,0.1104 -0.2597,-0.1172 -0.4057,-0.3604 -0.3213,-0.5391 0.0772,-0.1836 0.3575,-0.2344 0.6172,-0.1113 0.2608,0.1172 0.4087,0.3613 0.3194,0.54 z m -0.4415,-0.3271"
         id="path4005"
         style="fill:#000000"
         inkscape:connector-curvature="0" /><path
         d="m 43.1865,82.123 c -0.1709,0.1583 -0.5049,0.084 -0.7314,-0.166 -0.2354,-0.25 -0.2788,-0.584 -0.1055,-0.7461 0.1768,-0.1562 0.5,-0.083 0.7354,0.167 0.2343,0.253 0.2802,0.584 0.1015,0.7451 z m -0.3418,-0.3671"
         id="path4007"
         style="fill:#000000"
         inkscape:connector-curvature="0" /><path
         d="m 44.5996,84.1865 c -0.2197,0.1533 -0.5791,0.0088 -0.8008,-0.3095 -0.2197,-0.3184 -0.2197,-0.7012 0.0049,-0.8545 0.2227,-0.1524 0.5762,-0.0147 0.8013,0.3017 0.2192,0.3233 0.2192,0.7061 -0.0054,0.8623 z m 0,0"
         id="path4009"
         style="fill:#000000"
         inkscape:connector-curvature="0" /><path
         d="m 46.5356,86.1797 c -0.1967,0.2178 -0.6147,0.1592 -0.9213,-0.1367 -0.3135,-0.2881 -0.4004,-0.6992 -0.2041,-0.916 0.2002,-0.2168 0.6211,-0.1553 0.9287,0.1386 0.3115,0.2881 0.4062,0.7012 0.1967,0.9141 z m 0,0"
         id="path4011"
         style="fill:#000000"
         inkscape:connector-curvature="0" /><path
         d="m 49.2061,87.3389 c -0.087,0.2802 -0.4893,0.4072 -0.8956,0.2881 -0.4052,-0.1231 -0.6699,-0.4512 -0.5888,-0.7344 0.084,-0.2832 0.4892,-0.4151 0.8984,-0.2881 0.4053,0.1221 0.6699,0.4482 0.586,0.7344 z m 0,0"
         id="path4013"
         style="fill:#000000"
         inkscape:connector-curvature="0" /><path
         d="m 52.1396,87.5527 c 0.0098,0.2959 -0.3339,0.5411 -0.7602,0.5469 -0.4282,0.0098 -0.7759,-0.2305 -0.7798,-0.5215 0,-0.2978 0.3359,-0.54 0.7647,-0.5478 0.4257,-0.0078 0.7753,0.2295 0.7753,0.5224 z m 0,0"
         id="path4015"
         style="fill:#000000"
         inkscape:connector-curvature="0" /><path
         d="m 54.8691,87.0889 c 0.0508,0.2881 -0.2451,0.5849 -0.6679,0.6631 -0.417,0.0761 -0.8018,-0.1016 -0.8545,-0.3877 -0.0518,-0.2959 0.25,-0.5918 0.6645,-0.669 0.4243,-0.0723 0.8042,0.1006 0.8579,0.3936 z m 0,0"
         id="path4017"
         style="fill:#000000"
         inkscape:connector-curvature="0" /></g></g></svg>