<?xml version="1.0" encoding="UTF-8" standalone="no"?>
<!-- Generator: Adobe Illustrator 17.1.0, SVG Export Plug-In . SVG Version: 6.00 Build 0)  -->

<svg
   xmlns:dc="http://purl.org/dc/elements/1.1/"
   xmlns:cc="http://creativecommons.org/ns#"
   xmlns:rdf="http://www.w3.org/1999/02/22-rdf-syntax-ns#"
   xmlns:svg="http://www.w3.org/2000/svg"
   xmlns="http://www.w3.org/2000/svg"
   xmlns:sodipodi="http://sodipodi.sourceforge.net/DTD/sodipodi-0.dtd"
   xmlns:inkscape="http://www.inkscape.org/namespaces/inkscape"
   version="1.1"
   id="Instagram"
   x="0px"
   y="0px"
   viewBox="0 0 140 140"
   enable-background="new 0 0 128 128"
   xml:space="preserve"
   sodipodi:docname="instagram.svg"
   inkscape:version="0.92.2 (5c3e80d, 2017-08-06)"
   width="140"
   height="140"><metadata
     id="metadata4049"><rdf:RDF><cc:Work
         rdf:about=""><dc:format>image/svg+xml</dc:format><dc:type
           rdf:resource="http://purl.org/dc/dcmitype/StillImage" /><dc:title /></cc:Work></rdf:RDF></metadata><defs
     id="defs4047"><filter
       inkscape:label="Chalk and Sponge"
       inkscape:menu="Distort"
       inkscape:menu-tooltip="Low turbulence gives sponge look and high turbulence chalk"
       width="1.6"
       height="2"
       y="-0.5"
       x="-0.30000001"
       style="color-interpolation-filters:sRGB"
       id="filter145615"><feTurbulence
         baseFrequency="0.4"
         type="fractalNoise"
         seed="0"
         numOctaves="5"
         result="result1"
         id="feTurbulence145611" /><feDisplacementMap
         xChannelSelector="R"
         yChannelSelector="G"
         scale="30"
         in="SourceGraphic"
         in2="result1"
         id="feDisplacementMap145613" /></filter><filter
       inkscape:label="Torn Edges"
       inkscape:menu="Distort"
       inkscape:menu-tooltip="Displace the outside of shapes and pictures without altering their content"
       height="1.4"
       y="-0.2"
       width="1.4"
       x="-0.2"
       style="color-interpolation-filters:sRGB"
       id="filter18"><feTurbulence
         baseFrequency="0.05"
         numOctaves="5"
         type="fractalNoise"
         result="result91"
         id="feTurbulence12" /><feDisplacementMap
         scale="25"
         result="result5"
         xChannelSelector="R"
         in="SourceGraphic"
         in2="result91"
         id="feDisplacementMap14"
         yChannelSelector="A" /><feComposite
         in="SourceGraphic"
         operator="atop"
         in2="result5"
         id="feComposite16" /></filter></defs><sodipodi:namedview
     pagecolor="#ffffff"
     bordercolor="#666666"
     borderopacity="1"
     objecttolerance="10"
     gridtolerance="10"
     guidetolerance="10"
     inkscape:pageopacity="0"
     inkscape:pageshadow="2"
     inkscape:window-width="767"
     inkscape:window-height="468"
     id="namedview4045"
     showgrid="false"
     inkscape:zoom="1.84375"
     inkscape:cx="-24.135593"
     inkscape:cy="66.927599"
     inkscape:window-x="55"
     inkscape:window-y="400"
     inkscape:window-maximized="0"
     inkscape:current-layer="Instagram" /><g
     id="g4042"
     transform="translate(6.5084746,4.4067796)"><circle
       id="instagram-back"
       cx="64"
       cy="64"
       r="64"
       style="fill:#ad3511;fill-opacity:1;filter:url(#filter18);opacity:0.8" /><path
       id="instagram-instagram"
       d="m 90.694957,58.608461 h -5.673593 c 0.412868,1.551406 0.657898,3.171984 0.657898,4.847848 0,10.70814 -8.978355,19.385943 -20.052598,19.385943 -11.073789,0 -20.051689,-8.677803 -20.051689,-19.385943 0,-1.675864 0.24503,-3.296442 0.658807,-4.847848 h -5.674047 v 26.656836 c 0,1.336419 1.122771,2.421375 2.509211,2.421375 h 45.115891 c 1.386894,0 2.51012,-1.084956 2.51012,-2.421375 z m 0,-16.960701 c 0,-1.33765 -1.123226,-2.423045 -2.51012,-2.423045 h -7.517724 c -1.384258,0 -2.506484,1.085395 -2.506484,2.423045 v 7.270542 c 0,1.337737 1.122226,2.423045 2.506484,2.423045 h 7.517724 c 1.386894,0 2.51012,-1.085308 2.51012,-2.423045 z m -25.068293,9.693587 c -6.922016,0 -12.533056,5.423462 -12.533056,12.114962 0,6.691148 5.61104,12.117598 12.533056,12.117598 6.92247,0 12.533965,-5.42645 12.533965,-12.117598 0,-6.6915 -5.611495,-12.114962 -12.533965,-12.114962 M 90.694957,94.958444 H 40.559735 c -4.151773,0 -7.518179,-3.255659 -7.518179,-7.271772 V 39.224715 c 0,-4.014004 3.366406,-7.267905 7.518179,-7.267905 h 50.135222 c 4.152682,0 7.517721,3.253901 7.517721,7.267905 v 48.461957 c 0,4.016113 -3.365039,7.271772 -7.517721,7.271772"
       style="clip-rule:evenodd;fill:#000000;fill-rule:evenodd;stroke-width:0.89393914"
       inkscape:connector-curvature="0" /></g></svg>