<?xml version="1.0" encoding="UTF-8" standalone="no"?>
<!-- Generator: Adobe Illustrator 17.0.0, SVG Export Plug-In . SVG Version: 6.00 Build 0)  -->

<svg
   xmlns:dc="http://purl.org/dc/elements/1.1/"
   xmlns:cc="http://creativecommons.org/ns#"
   xmlns:rdf="http://www.w3.org/1999/02/22-rdf-syntax-ns#"
   xmlns:svg="http://www.w3.org/2000/svg"
   xmlns="http://www.w3.org/2000/svg"
   xmlns:sodipodi="http://sodipodi.sourceforge.net/DTD/sodipodi-0.dtd"
   xmlns:inkscape="http://www.inkscape.org/namespaces/inkscape"
   version="1.1"
   id="Chevron_circled_right"
   x="0px"
   y="0px"
   width="30"
   height="30"
   viewBox="0 0 30 30"
   enable-background="new 0 0 612 792"
   xml:space="preserve"
   sodipodi:docname="popover.svg"
   inkscape:version="0.92.2 (5c3e80d, 2017-08-06)"><metadata
     id="metadata9"><rdf:RDF><cc:Work
         rdf:about=""><dc:format>image/svg+xml</dc:format><dc:type
           rdf:resource="http://purl.org/dc/dcmitype/StillImage" /><dc:title></dc:title></cc:Work></rdf:RDF></metadata><defs
     id="defs7" /><sodipodi:namedview
     pagecolor="#ffffff"
     bordercolor="#666666"
     borderopacity="1"
     objecttolerance="10"
     gridtolerance="10"
     guidetolerance="10"
     inkscape:pageopacity="0"
     inkscape:pageshadow="2"
     inkscape:window-width="1528"
     inkscape:window-height="877"
     id="namedview5"
     showgrid="false"
     inkscape:zoom="4.7676768"
     inkscape:cx="18.948547"
     inkscape:cy="10.983354"
     inkscape:window-x="64"
     inkscape:window-y="-8"
     inkscape:window-maximized="1"
     inkscape:current-layer="Chevron_circled_right" /><ellipse
     style="opacity:1;fill:#ad3511;fill-opacity:1;stroke:#ad3511;stroke-width:1.03171563;stroke-opacity:1"
     id="path821"
     cx="14.987167"
     cy="15.160487"
     rx="13.817707"
     ry="13.984673" /><g
     id="g834"
     transform="translate(1.3348137,-0.37078163)"><path
       style="fill:#b9b9b9;fill-opacity:1;stroke-width:0.02388479"
       d="m 11.052249,23.212724 c 0.254735,-0.05995 0.342472,-0.127201 0.912863,-0.699744 0.302417,-0.303559 0.780413,-0.788385 1.062212,-1.07739 0.2818,-0.289006 0.770325,-0.788796 1.085611,-1.110643 0.774866,-0.790989 1.48097,-1.513136 2.055399,-2.102095 0.262733,-0.269379 0.741861,-0.7584 1.064731,-1.086712 0.322869,-0.328313 0.622021,-0.645299 0.664783,-0.704413 0.289249,-0.399865 0.289261,-0.937563 2.8e-5,-1.337549 C 17.85513,15.035064 17.55558,14.717993 17.23221,14.389577 16.908841,14.061161 16.429699,13.572267 16.167452,13.303145 15.452381,12.56933 14.825414,11.927754 14.148141,11.236785 13.813359,10.895233 13.30338,10.373947 13.014854,10.078373 11.880161,8.9159601 11.506833,8.5429261 11.412009,8.4767886 10.998441,8.1883364 10.424972,8.234737 10.043968,8.5874797 9.6461298,8.9558075 9.5690918,9.5983704 9.8702851,10.03614 c 0.056782,0.08253 1.2315409,1.38029 1.8652039,2.060498 0.06119,0.06568 0.233692,0.253775 0.38334,0.417983 0.359669,0.394665 0.768004,0.840252 0.919294,1.003161 0.0671,0.07225 0.234768,0.254971 0.372601,0.406042 0.137833,0.151071 0.486862,0.531936 0.775621,0.846367 0.733664,0.798889 0.895231,0.978376 0.895231,0.994523 0,0.0077 -0.270436,0.308765 -0.600969,0.668954 -0.330533,0.36019 -0.713872,0.778494 -0.851864,0.929565 -0.137993,0.151072 -0.364659,0.398505 -0.503703,0.549852 -0.369392,0.402079 -0.897801,0.978758 -1.542469,1.683376 -0.752245,0.822198 -1.251538,1.366397 -1.461343,1.592773 -0.3068001,0.331032 -0.408571,0.52831 -0.4318522,0.837125 -0.041365,0.548683 0.3321512,1.066259 0.8567602,1.187201 0.126026,0.02905 0.380893,0.02863 0.506113,-8.36e-4 z"
       id="path848"
       inkscape:connector-curvature="0" /><path
       style="fill:#a3a3a3;fill-opacity:1;stroke-width:0.02388479"
       d="m 11.073401,23.203786 c 0.29745,-0.08192 0.3846,-0.160317 1.846718,-1.661153 0.236523,-0.242787 0.693319,-0.710159 1.015103,-1.038606 0.321784,-0.328446 1.020014,-1.043199 1.551623,-1.588338 0.531609,-0.54514 1.199407,-1.227623 1.483996,-1.516629 0.973566,-0.988677 1.003622,-1.024914 1.096613,-1.32215 0.08561,-0.273636 0.05012,-0.587327 -0.09744,-0.861362 -0.03948,-0.07332 -0.164709,-0.230045 -0.27828,-0.348275 C 17.46196,14.628076 15.913647,13.042456 15.009941,12.120862 14.064557,11.156765 13.332765,10.40869 12.860291,9.9233827 11.785604,8.8195036 11.418016,8.4631957 11.295837,8.4069381 10.846394,8.1999898 10.391225,8.265981 10.042743,8.5886138 9.7450787,8.8641983 9.6116822,9.3256809 9.7221051,9.6978525 c 0.0853,0.287497 0.1319011,0.3497095 0.8217629,1.0970645 0.325252,0.352358 0.628975,0.683342 0.941894,1.026434 0.07819,0.08573 0.25115,0.274092 0.384366,0.418595 0.133215,0.144503 0.66996,0.730278 1.192767,1.301721 0.522806,0.571444 1.000385,1.092729 1.061287,1.158412 0.103116,0.111213 0.822398,0.898028 0.915596,1.001562 0.02299,0.02554 0.0418,0.05276 0.0418,0.06049 0,0.01622 -0.797945,0.89961 -1.219516,1.350109 -0.08615,0.09206 -0.381728,0.414561 -0.656831,0.716657 -0.275104,0.302096 -0.565635,0.619166 -0.645625,0.704601 -0.07999,0.08544 -0.450801,0.489038 -0.824025,0.896895 -0.373224,0.407858 -0.936545,1.023452 -1.251824,1.367987 -0.31528,0.344536 -0.6029185,0.677219 -0.6391981,0.739298 -0.3816533,0.653051 -0.044766,1.47126 0.6869671,1.668457 0.147409,0.03973 0.392966,0.03866 0.541877,-0.0024 z"
       id="path846"
       inkscape:connector-curvature="0" /><path
       style="fill:#8c8c8c;fill-opacity:1;stroke-width:0.02388479"
       d="m 11.05699,23.204948 c 0.309453,-0.07743 0.355306,-0.118101 1.779416,-1.578492 1.053811,-1.080657 1.520771,-1.558301 2.077989,-2.125534 0.322618,-0.328416 1.010636,-1.03242 1.528929,-1.564454 0.518292,-0.532033 1.055382,-1.083015 1.193532,-1.224403 0.138151,-0.141388 0.285203,-0.317621 0.326784,-0.39163 0.144133,-0.256537 0.184836,-0.552549 0.113718,-0.827005 -0.06468,-0.249598 -0.144294,-0.371159 -0.449205,-0.685869 -0.527567,-0.54452 -2.095506,-2.15198 -2.71377,-2.782173 C 14.348447,11.448534 14.041516,11.134584 12.847506,9.911247 11.34959,8.3765396 11.387174,8.4098469 11.055997,8.3235862 10.258867,8.1159601 9.5108673,8.878682 9.7206391,9.6852271 c 0.069531,0.2673385 0.1581364,0.3815949 1.0497329,1.3536349 0.472919,0.515587 1.27791,1.394435 1.78887,1.952995 0.51096,0.55856 0.989314,1.080053 1.063009,1.158872 0.0737,0.07882 0.246725,0.266913 0.38451,0.417984 0.137785,0.151071 0.310535,0.339164 0.38389,0.417984 0.07335,0.07882 0.250746,0.272286 0.394204,0.429926 0.143459,0.15764 0.268908,0.2902 0.278777,0.294579 0.06021,0.02672 0.0415,0.04934 -0.793698,0.959372 -0.126591,0.137935 -0.352981,0.385143 -0.503088,0.549351 -0.150107,0.164207 -0.278784,0.303933 -0.285948,0.310502 -0.0072,0.0066 -0.426173,0.463365 -0.93113,1.015103 -0.504957,0.551739 -0.962452,1.051528 -1.016657,1.110643 -0.0542,0.05912 -0.236405,0.257956 -0.404891,0.441868 -0.168485,0.183913 -0.41019,0.447243 -0.537122,0.585178 -0.7528887,0.818154 -0.797542,0.87772 -0.8718555,1.163029 -0.2083441,0.799887 0.5386925,1.558625 1.3377475,1.3587 z"
       id="path844"
       inkscape:connector-curvature="0" /><path
       style="fill:#767676;fill-opacity:1;stroke-width:0.02388479"
       d="m 11.062613,23.20207 c 0.255953,-0.06893 0.360707,-0.143751 0.746747,-0.533362 0.478615,-0.483041 1.234956,-1.255262 2.424229,-2.475127 0.525095,-0.538602 1.228965,-1.258716 1.564156,-1.600253 0.607353,-0.618854 1.175564,-1.201085 1.798357,-1.842733 0.366849,-0.377955 0.446944,-0.508674 0.499056,-0.814478 0.03709,-0.217632 0.0022,-0.451516 -0.100028,-0.67066 -0.08054,-0.172649 0.0047,-0.08203 -2.150227,-2.28466 C 14.489384,11.5953 14.176571,11.275291 13.744028,10.831589 13.048119,10.117726 12.226136,9.2790418 11.80936,8.8576122 11.418674,8.4625626 11.318927,8.3920707 11.052373,8.3226422 10.304474,8.1278393 9.5720566,8.8120157 9.7034,9.5827637 c 0.056864,0.3336876 0.1355624,0.4490683 0.769761,1.1285563 0.07357,0.07882 0.250901,0.272287 0.394078,0.429926 0.143177,0.15764 0.26594,0.291992 0.272806,0.29856 0.0069,0.0066 0.125339,0.135546 0.263274,0.286617 0.137935,0.151072 0.256602,0.28005 0.263704,0.286618 0.0071,0.0066 0.485029,0.527854 1.062058,1.158412 0.57703,0.630558 1.093684,1.194837 1.148122,1.253951 0.902975,0.98055 1.204373,1.315351 1.204373,1.33785 0,0.01491 -0.125793,0.163355 -0.27954,0.329878 -0.469732,0.508764 -0.778085,0.844812 -0.890814,0.970822 -0.05912,0.06608 -0.113339,0.125517 -0.120498,0.132086 -0.0072,0.0066 -0.603192,0.656831 -1.324521,1.445029 -0.721328,0.788198 -1.371949,1.497577 -1.445825,1.576396 -0.07388,0.07882 -0.251466,0.272287 -0.394643,0.429927 -0.143176,0.157639 -0.266064,0.291991 -0.273083,0.298559 -0.007,0.0066 -0.11845,0.128454 -0.247623,0.270857 -0.2651951,0.292356 -0.3555075,0.455683 -0.401629,0.726333 -0.1316938,0.772804 0.610775,1.460493 1.359213,1.258929 z"
       id="path842"
       inkscape:connector-curvature="0" /><path
       style="fill:#606060;fill-opacity:1;stroke-width:0.02388479"
       d="m 11.070871,23.195104 c 0.242773,-0.06338 0.400246,-0.175227 0.745393,-0.529448 0.880949,-0.90411 4.096332,-4.194054 4.890459,-5.003863 1.090843,-1.112385 1.200747,-1.232274 1.282299,-1.398803 0.158582,-0.32382 0.159452,-0.678177 0.0025,-1.000076 -0.07937,-0.162741 -0.181883,-0.274338 -1.284917,-1.398802 C 16.023819,13.168106 14.354116,11.459906 13.111198,10.185855 11.501305,8.5356361 11.461063,8.4965423 11.283895,8.4107193 11.198507,8.3693558 11.052052,8.3226413 10.958439,8.3069093 10.239564,8.1860994 9.5807597,8.8556185 9.7030021,9.5827637 9.7533039,9.881978 9.8622682,10.055108 10.278,10.496357 c 0.07426,0.07882 0.306504,0.331401 0.516094,0.561292 0.209591,0.229891 0.431108,0.471725 0.492261,0.537408 0.06115,0.06568 0.945852,1.030435 1.965999,2.143894 l 1.854813,2.02447 -0.509989,0.555087 c -0.280494,0.305298 -0.632109,0.689439 -0.781365,0.853647 -0.149257,0.164208 -0.336636,0.368649 -0.416399,0.454313 -0.07976,0.08567 -0.247873,0.268384 -0.373577,0.406042 -0.395869,0.433515 -1.623812,1.773621 -1.739452,1.898338 -0.0609,0.06568 -0.233531,0.253776 -0.383618,0.417984 -0.150086,0.164208 -0.376723,0.411415 -0.503637,0.54935 -0.566659,0.615863 -0.6436693,0.731449 -0.6962156,1.044959 -0.094321,0.562755 0.2834174,1.127124 0.8426216,1.258937 0.195534,0.04609 0.328837,0.04432 0.525335,-0.007 z"
       id="path840"
       inkscape:connector-curvature="0" /><path
       style="fill:#494949;fill-opacity:1;stroke-width:0.02388479"
       d="m 11.037037,23.204912 c 0.06785,-0.01645 0.186075,-0.06109 0.262733,-0.09919 0.147958,-0.07354 0.191378,-0.114974 1.201247,-1.146242 0.295023,-0.301275 0.762694,-0.778858 1.039269,-1.061295 0.276574,-0.282438 0.937926,-0.959572 1.46967,-1.504742 0.531744,-0.54517 1.214554,-1.2438 1.517356,-1.552511 1.258554,-1.283114 1.382284,-1.415937 1.450379,-1.556959 0.14666,-0.30373 0.1666,-0.579472 0.06394,-0.88421 -0.07449,-0.221114 -0.160299,-0.332553 -0.606665,-0.78785 -0.903429,-0.921503 -1.50521,-1.536748 -2.44855,-2.50333 C 13.488975,10.574243 12.078672,9.1337627 11.701879,8.7537605 11.499022,8.5491768 11.403765,8.471755 11.283895,8.41404 10.989774,8.2724262 10.715472,8.2563989 10.426754,8.3639577 10.247877,8.4305963 10.146116,8.4970466 10.003702,8.6402116 9.6445956,9.0012107 9.5904211,9.601729 9.8785696,10.027284 c 0.059083,0.08726 1.4018874,1.568226 2.3726604,2.616788 0.01314,0.01419 0.195732,0.213893 0.405766,0.443784 0.210034,0.229891 0.43159,0.471725 0.492346,0.537408 0.06076,0.06568 0.479781,0.52248 0.931166,1.015103 0.451386,0.492624 0.863971,0.942361 0.916856,0.999415 0.05289,0.05706 0.09615,0.112482 0.09615,0.12317 0,0.01069 -0.04327,0.06612 -0.09615,0.123171 -0.05288,0.05705 -0.46547,0.506791 -0.916856,0.999415 -0.451385,0.492623 -0.870564,0.94942 -0.931508,1.015103 -0.06094,0.06568 -0.282342,0.307517 -0.491996,0.537408 -0.209654,0.229891 -0.392095,0.429613 -0.405425,0.443826 -0.588378,0.627387 -2.3158849,2.532291 -2.3730094,2.616693 -0.2930883,0.433044 -0.2355026,1.017821 0.1379074,1.40044 0.269044,0.275679 0.66089,0.393132 1.02056,0.305904 z"
       id="path838"
       inkscape:connector-curvature="0" /><path
       style="fill:#ffffff;fill-opacity:1;stroke-width:0.02388479"
       d="m 11.027829,23.20147 c 0.217934,-0.0528 0.387195,-0.149166 0.560914,-0.31935 0.155535,-0.152369 0.6465,-0.652411 1.819274,-1.852908 0.307818,-0.315094 0.764614,-0.782543 1.015104,-1.038774 0.250489,-0.256231 0.906703,-0.927991 1.458254,-1.492799 0.55155,-0.564808 1.203722,-1.231139 1.44927,-1.480735 0.514978,-0.523467 0.575404,-0.594625 0.666218,-0.784553 0.149349,-0.312348 0.142457,-0.652218 -0.01984,-0.978617 -0.07283,-0.146459 -0.157035,-0.244725 -0.576767,-0.673053 -0.926979,-0.945963 -1.77798,-1.816446 -4.08615,-4.179698 C 11.712671,8.7613356 11.436867,8.4905752 11.299692,8.4234074 11.07801,8.31486 10.85745,8.2755818 10.654595,8.3085257 10.036925,8.4088362 9.6073999,8.9833364 9.7072922,9.5755668 c 0.05592,0.3315319 0.1164205,0.4173673 0.8846998,1.2551772 0.385486,0.420372 0.927014,1.011521 1.203397,1.313663 0.276384,0.302143 0.552023,0.603091 0.612531,0.668774 0.06051,0.06568 0.237999,0.25915 0.394421,0.429926 0.156422,0.170777 0.334137,0.364243 0.394922,0.429927 0.06079,0.06568 0.420324,0.45799 0.798975,0.871794 0.37865,0.413804 0.780441,0.852774 0.892868,0.975489 0.112427,0.122716 0.204412,0.231901 0.204412,0.242635 0,0.01074 -0.09215,0.11992 -0.204781,0.242636 -0.11263,0.122715 -0.509133,0.556311 -0.881118,0.963546 -0.371985,0.407236 -0.731255,0.799812 -0.798379,0.872391 -0.06712,0.07258 -0.186533,0.201586 -0.265352,0.286682 -0.07882,0.08509 -0.245417,0.267342 -0.370215,0.404992 -0.124798,0.137651 -0.296768,0.325928 -0.382156,0.418396 -0.22709,0.245917 -0.551796,0.600163 -1.324508,1.445006 -0.378474,0.413804 -0.738376,0.806112 -0.799783,0.871795 -0.313121,0.334925 -0.4290324,0.684283 -0.350783,1.057258 0.09325,0.444473 0.416872,0.776021 0.855624,0.876576 0.190891,0.04375 0.272609,0.04361 0.455762,-7.6e-4 z"
       id="path836"
       inkscape:connector-curvature="0" /></g></svg>